<svg width="20" height="14" viewBox="0 0 20 14" fill="none" xmlns="http://www.w3.org/2000/svg">
<path d="M13.2578 7.10241L20.0003 11.3649V2.65991L13.2578 7.10241Z" fill="#929292"/>
<path d="M0 2.65991V11.3649L6.7425 7.10241L0 2.65991Z" fill="#929292"/>
<path d="M18.7496 0.125H1.24961C0.625859 0.125 0.130859 0.59 0.0371094 1.18875L9.99961 7.7525L19.9621 1.18875C19.8684 0.59 19.3734 0.125 18.7496 0.125Z" fill="#929292"/>
<path d="M12.1125 7.85769L10.3438 9.02269C10.2388 9.09144 10.12 9.12519 10 9.12519C9.88004 9.12519 9.76129 9.09144 9.65629 9.02269L7.88754 7.85645L0.0400391 12.8202C0.136289 13.4139 0.628789 13.8752 1.25004 13.8752H18.75C19.3713 13.8752 19.8638 13.4139 19.96 12.8202L12.1125 7.85769Z" fill="#929292"/>
</svg>
