<svg width="20" height="20" viewBox="0 0 20 20" fill="none" xmlns="http://www.w3.org/2000/svg">
<path d="M19.9979 16.1248C19.9816 15.7618 19.8569 15.4372 19.6242 15.1568C19.3996 14.8919 17.9647 13.7572 17.3243 13.3189C16.8263 12.9799 16.0394 12.5026 15.6714 12.3163C15.1277 12.0459 14.5811 11.9986 14.0431 12.177C13.9255 12.2163 13.8415 12.2513 13.7625 12.2926C13.4901 12.4356 13.2901 12.6609 12.9015 13.1389C12.4852 13.6415 12.3985 13.7392 12.3995 13.7392C12.3602 13.7629 12.2975 13.7962 12.2215 13.8309C11.9119 13.9719 11.4042 13.8559 10.5786 13.4536C9.88191 13.1166 9.25627 12.684 8.54965 12.0513C7.94769 11.515 7.34236 10.8193 7.00639 10.2797C6.53973 9.53104 6.25744 8.66474 6.25408 8.26241C6.25408 8.10574 6.32275 7.88075 6.39708 7.75677L6.42973 7.72309C6.45173 7.70177 6.47606 7.67876 6.50938 7.64943C6.62539 7.54509 6.79335 7.40545 6.96835 7.2671C7.73633 6.66212 7.97964 6.41713 8.10963 5.96214C8.23529 5.5415 8.12498 5.02351 7.7623 4.33256C7.22197 3.30158 5.50871 1.10732 4.79374 0.644686C4.67609 0.571017 4.48242 0.471684 4.34544 0.42571C4.05213 0.322041 3.63081 0.28673 3.36879 0.342392C3.00615 0.416725 2.60816 0.645037 1.72987 1.28302C1.2486 1.63535 0.506633 2.32431 0.305273 2.65363C-0.169709 3.45126 -0.048698 4.14323 0.38195 5.30221C0.792286 6.40818 1.31859 7.52146 1.94424 8.60841L1.97689 8.66341C2.1029 8.88106 2.23188 9.09808 2.36723 9.31573L2.40223 9.37073C2.53656 9.58439 2.67257 9.79771 2.81487 10.01L3.0392 10.3364C3.12286 10.4583 3.20618 10.58 3.29251 10.701C3.46285 10.9384 3.63749 11.175 3.8185 11.411C5.74808 13.9236 7.971 15.9408 10.6139 17.5771L10.7222 17.6451C11.1059 17.8801 11.5142 18.1151 11.9355 18.3431L12.1001 18.4318C12.5361 18.6637 12.9504 18.8717 13.3668 19.0667L13.4964 19.1257C13.9881 19.3534 14.4377 19.549 14.8704 19.7234C15.394 19.9347 15.6363 19.9994 16.0043 19.9994C16.0696 19.9994 16.1393 19.9974 16.2153 19.9937C16.4526 19.9824 16.666 19.947 16.8679 19.8854C17.1516 19.7994 17.4356 19.655 17.7606 19.4307C17.8172 19.3917 17.8739 19.352 17.9349 19.307C18.0069 19.254 18.0836 19.189 18.1612 19.122C18.5315 18.8017 18.9565 18.3364 19.2988 17.8774C19.4815 17.6325 19.7242 17.2768 19.8451 16.9715C19.9585 16.6858 20.0098 16.4008 19.9978 16.1252V16.1248H19.9979Z" fill="#A418D5"/>
</svg>
