<svg width="100" height="99" viewBox="0 0 100 99" fill="none" xmlns="http://www.w3.org/2000/svg">
<circle cx="3.60526" cy="2.60526" r="2.60526" fill="#4F4F4F"/>
<circle cx="3.60526" cy="65.1316" r="2.60526" fill="#4F4F4F"/>
<circle cx="3.60526" cy="33.8684" r="2.60526" fill="#4F4F4F"/>
<circle cx="3.60526" cy="96.3947" r="2.60526" fill="#4F4F4F"/>
<circle cx="34.868" cy="2.60526" r="2.60526" fill="#4F4F4F"/>
<circle cx="34.868" cy="65.1316" r="2.60526" fill="#4F4F4F"/>
<circle cx="34.868" cy="33.8684" r="2.60526" fill="#4F4F4F"/>
<circle cx="34.868" cy="96.3947" r="2.60526" fill="#4F4F4F"/>
<circle cx="66.1316" cy="2.60526" r="2.60526" fill="#4F4F4F"/>
<circle cx="66.1316" cy="65.1316" r="2.60526" fill="#4F4F4F"/>
<circle cx="66.1316" cy="33.8684" r="2.60526" fill="#4F4F4F"/>
<circle cx="66.1316" cy="96.3947" r="2.60526" fill="#4F4F4F"/>
<circle cx="97.3943" cy="2.60526" r="2.60526" fill="#4F4F4F"/>
<circle cx="97.3943" cy="65.1316" r="2.60526" fill="#4F4F4F"/>
<circle cx="97.3943" cy="33.8684" r="2.60526" fill="#4F4F4F"/>
<circle cx="97.3943" cy="96.3947" r="2.60526" fill="#4F4F4F"/>
<circle cx="72" cy="68" r="23" stroke="#FF9900" stroke-width="4"/>
<path d="M55.2178 28.7607L58.4883 15.1345C58.691 15.1551 58.8918 15.1964 59.1019 15.1964C62.4644 15.1964 65.2001 12.4607 65.2001 9.0982C65.2001 5.73575 62.4644 3 59.1019 3C55.7376 3 53.0037 5.73575 53.0037 9.0982C53.0037 11.5938 54.5142 13.7385 56.6645 14.6823L53.4278 28.1621C51.5589 27.633 49.5925 27.329 47.5547 27.329C41.7774 27.329 36.5367 29.6219 32.6601 33.3296L21.5238 20.8068C23.5522 19.0017 24.8563 16.401 24.8563 13.4777C24.8563 8.04556 20.4374 3.62671 15.0053 3.62671C9.57324 3.62671 5.15439 8.04556 5.15439 13.4777C5.15439 18.9116 9.57324 23.3286 15.0053 23.3286C16.8367 23.3286 18.531 22.7938 20.0002 21.9194L31.3579 34.6919C28.078 38.4184 26.0609 43.2725 25.9802 48.5977L15.9191 49.3782C15.9248 49.2919 15.9491 49.2112 15.9491 49.1249C15.9491 44.7267 12.3728 41.1504 7.97457 41.1504C3.57449 41.1504 0 44.7267 0 49.1249C0 53.5213 3.57449 57.0995 7.97457 57.0995C11.6185 57.0995 14.6638 54.6283 15.6133 51.2828L26.0478 50.4665C26.849 61.6478 36.1764 70.508 47.5622 70.508C59.4697 70.508 69.148 60.8222 69.148 48.9167C69.1442 39.7149 63.3444 31.8605 55.2178 28.7607ZM54.8801 9.09633C54.8801 6.76775 56.7752 4.87449 59.1019 4.87449C61.4286 4.87449 63.3237 6.76775 63.3237 9.09633C63.3237 11.4249 61.4286 13.3182 59.1019 13.3182C56.7752 13.3182 54.8801 11.423 54.8801 9.09633ZM7.03264 13.4758C7.03264 9.07944 10.609 5.5012 15.0072 5.5012C19.4054 5.5012 22.9818 9.07944 22.9818 13.4758C22.9818 17.8721 19.4054 21.4503 15.0072 21.4503C10.609 21.4503 7.03264 17.874 7.03264 13.4758ZM7.97082 55.225C4.60837 55.225 1.87262 52.4911 1.87262 49.1268C1.87262 45.7662 4.60837 43.0286 7.97082 43.0286C11.3333 43.0286 14.069 45.7662 14.069 49.1268C14.069 52.4911 11.3333 55.225 7.97082 55.225ZM47.5585 68.1832C36.9195 68.1832 28.2957 59.5557 28.2957 48.9167C28.2957 38.2814 36.9195 29.6538 47.5585 29.6538C58.1937 29.6538 66.8175 38.2814 66.8175 48.9167C66.8157 59.5576 58.1937 68.1832 47.5585 68.1832ZM47.4478 47.3855H45.6784V43.4452H47.4478C48.4817 43.4452 49.2003 43.5071 49.5981 43.6403C49.9996 43.7641 50.3111 43.9856 50.5175 44.282C50.7277 44.5822 50.8402 44.9481 50.8402 45.3703C50.8402 45.7812 50.7239 46.1434 50.5025 46.4549C50.2755 46.7663 49.9433 47.0009 49.5024 47.1547C49.0615 47.3086 48.3747 47.3855 47.4478 47.3855ZM50.8196 50.7649C51.0429 51.1026 51.1536 51.506 51.1536 51.9808C51.1536 52.5456 50.9922 53.0297 50.677 53.4274C50.3618 53.8252 49.9809 54.0917 49.5305 54.223C49.0765 54.345 48.5079 54.4182 47.8268 54.4182H46.6466C46.2544 54.4182 46.0124 54.3919 45.9242 54.3487C45.836 54.3093 45.7703 54.2324 45.7328 54.1255C45.699 54.041 45.6821 53.7558 45.6784 53.2567V49.761H47.7668C48.6824 49.761 49.3617 49.8455 49.812 50.0181C50.2623 50.1851 50.5926 50.4346 50.8196 50.7649ZM47.5585 31.6803C38.0378 31.6803 30.3184 39.3997 30.3184 48.9204C30.3184 58.4411 38.0378 66.1605 47.5585 66.1605C57.0754 66.1605 64.7948 58.4467 64.7948 48.9204C64.7929 39.3997 57.0754 31.6803 47.5585 31.6803ZM54.5686 54.7784C54.0564 55.5046 53.3264 56.0544 52.3808 56.4315C52.0355 56.5666 51.6302 56.6811 51.1705 56.773V59.657H48.4329V56.9963C48.3672 56.9963 48.3015 57.0001 48.2321 57.0001H46.6785V59.657H43.9408V57.0001H39.7659V54.7691H40.4039C40.8336 54.7691 41.115 54.7296 41.2651 54.6546C41.4152 54.5795 41.5222 54.4782 41.5841 54.3431C41.646 54.208 41.6761 53.9078 41.6761 53.435V44.4227C41.6761 43.9462 41.646 43.6384 41.5841 43.5071C41.5222 43.3795 41.4152 43.2725 41.2651 43.1956C41.115 43.1187 40.8336 43.0793 40.4039 43.0793H39.7659V40.8464H43.9408V38.1876H46.6785V40.8445H48.4347V38.1876H51.1724V41.0396C51.5758 41.1203 51.9454 41.2123 52.2569 41.3399C53.06 41.6701 53.6792 42.1392 54.1108 42.7509C54.5367 43.3664 54.7525 44.0418 54.7525 44.7736C54.7525 45.3046 54.638 45.815 54.411 46.2916C54.1877 46.772 53.8537 47.1904 53.4259 47.56C52.9962 47.9259 52.4295 48.2299 51.7221 48.4682C52.4802 48.6596 53.06 48.8754 53.4597 49.1062C54.0432 49.4327 54.4973 49.8867 54.8369 50.4703C55.1784 51.0557 55.3492 51.7012 55.3492 52.4198C55.3492 53.268 55.0846 54.0598 54.5686 54.7784ZM59.1019 11.9897C57.5032 11.9897 56.2104 10.695 56.2104 9.09633C56.2104 7.49954 57.5032 6.20484 59.1019 6.20484C60.7006 6.20484 61.9971 7.49954 61.9971 9.09633C61.9971 10.6931 60.7006 11.9897 59.1019 11.9897ZM20.7132 13.4758C20.7132 16.6281 18.1595 19.1837 15.0072 19.1837C11.8549 19.1837 9.29741 16.6281 9.29741 13.4758C9.29741 10.3216 11.8549 7.76786 15.0072 7.76786C18.1595 7.76786 20.7132 10.3235 20.7132 13.4758ZM11.8005 49.1268C11.8005 51.2452 10.0855 52.9602 7.97082 52.9602C5.85615 52.9602 4.1374 51.2415 4.1374 49.1268C4.1374 47.0121 5.85615 45.2971 7.97082 45.2971C10.0855 45.2971 11.8005 47.0121 11.8005 49.1268Z" fill="white"/>
</svg>
