<svg width="102" height="99" viewBox="0 0 102 99" fill="none" xmlns="http://www.w3.org/2000/svg">
<circle cx="5.60526" cy="2.60526" r="2.60526" fill="#4F4F4F"/>
<circle cx="5.60526" cy="65.1316" r="2.60526" fill="#4F4F4F"/>
<circle cx="5.60526" cy="33.8684" r="2.60526" fill="#4F4F4F"/>
<circle cx="5.60526" cy="96.3947" r="2.60526" fill="#4F4F4F"/>
<circle cx="36.868" cy="2.60526" r="2.60526" fill="#4F4F4F"/>
<circle cx="36.868" cy="65.1316" r="2.60526" fill="#4F4F4F"/>
<circle cx="36.868" cy="33.8684" r="2.60526" fill="#4F4F4F"/>
<circle cx="36.868" cy="96.3947" r="2.60526" fill="#4F4F4F"/>
<circle cx="68.1316" cy="2.60526" r="2.60526" fill="#4F4F4F"/>
<circle cx="68.1316" cy="65.1316" r="2.60526" fill="#4F4F4F"/>
<circle cx="68.1316" cy="33.8684" r="2.60526" fill="#4F4F4F"/>
<circle cx="68.1316" cy="96.3947" r="2.60526" fill="#4F4F4F"/>
<circle cx="99.3943" cy="2.60526" r="2.60526" fill="#4F4F4F"/>
<circle cx="99.3943" cy="65.1316" r="2.60526" fill="#4F4F4F"/>
<circle cx="99.3943" cy="33.8684" r="2.60526" fill="#4F4F4F"/>
<circle cx="99.3943" cy="96.3947" r="2.60526" fill="#4F4F4F"/>
<circle cx="25" cy="62" r="23" stroke="#FF9900" stroke-width="4"/>
<g clip-path="url(#clip0)">
<path d="M89.684 20.0657C89.0007 19.9352 88.2745 19.9508 87.5562 19.8788C86.5536 19.7581 85.7788 19.2733 85.2435 18.6231C85.0313 18.3545 84.8483 18.0761 84.7159 17.7607C84.8834 17.7821 85.0586 17.8016 85.2396 17.825C86.5673 17.9749 88.1188 18.1345 89.1837 18.1209C89.1778 17.6011 89.2265 17.0872 89.3141 16.544C89.39 16.1411 89.5088 15.7692 89.6295 15.4033C89.8261 14.8465 90.0169 14.317 90.0616 13.733L90.0986 13.6493C90.4062 14.245 90.4646 14.9828 90.7878 15.6271C91.3951 17.1923 91.7261 18.9735 90.7839 20.4531C90.4354 20.2584 90.0714 20.1435 89.684 20.0657ZM88.1986 17.3967C89.4776 14.4104 87.9086 12.0354 86.8612 9.32948L86.8359 9.43849C86.3395 11.2159 86.0572 12.9776 86.3609 14.8329L85.1929 14.4941L84.0988 14.1651L82.4753 13.6921C82.483 14.6207 83.2014 15.6193 83.8788 16.2579C83.947 16.3163 84.0307 16.3727 84.1261 16.4194C84.459 16.6238 84.8211 16.7757 85.2201 16.8886C86.1623 17.1456 87.233 17.2176 88.1986 17.3967ZM85.189 13.8712C85.3661 13.9276 85.5297 13.9958 85.7068 14.0678C85.7146 13.3164 85.4946 12.4734 85.1676 11.6889C84.8814 10.9998 84.4921 10.3476 84.1144 9.85704C84.0852 9.83563 84.0677 9.822 84.056 9.80058C83.1566 9.07056 82.4149 8.32886 81.3462 8.04853C81.1826 8.00376 81.0016 7.9804 80.8186 7.95898C81.0133 8.40284 81.1904 8.89341 81.3617 9.39567C81.6615 10.2503 81.973 11.1399 82.4071 11.8388C82.814 12.5747 83.4097 13.036 84.091 13.3806C84.4317 13.5636 84.8113 13.7232 85.189 13.8712ZM93.5833 25.0376C94.1809 24.2083 94.4359 22.8553 94.3288 21.7067C94.14 20.7567 93.8266 19.9041 93.5151 19.0981C93.3185 18.6192 93.1394 18.1657 92.9681 17.6965L92.9019 17.7802C92.7248 19.0748 91.8156 20.3479 92.0453 21.7301C91.4711 21.6561 90.6087 21.3622 89.7034 21.1364C89.1369 20.9884 88.5471 20.8794 88.0078 20.8716C88.2181 21.9267 88.8858 22.7638 89.7307 23.3634C89.7755 23.4004 89.8241 23.4335 89.8709 23.4588C90.9591 24.1966 92.425 24.3309 93.2465 25.4036C93.3555 25.3062 93.4742 25.1778 93.5833 25.0376ZM95.4112 39.7256C96.5345 38.5732 97.0329 36.7977 97.064 35.2929L93.9123 38.7114C93.8519 38.6296 93.7916 38.5498 93.7293 38.4544C92.863 37.2786 91.6618 36.1495 91.0175 34.6719H90.963C90.2738 37.4635 91.8818 39.7704 93.1336 41.8164C93.3633 41.6645 93.5774 41.4932 93.7585 41.3297C94.3405 40.808 94.7435 40.2512 95.4112 39.7256ZM96.9219 30.6558C96.7973 30.4475 96.8771 30.3405 96.7934 30.1906C96.0673 31.38 94.8058 32.0789 94.1303 33.4221C94.0037 33.1048 93.8441 32.807 93.6689 32.5111C93.0226 31.4618 92.0687 30.4865 91.292 29.5306C91.292 29.4041 91.2199 29.3457 91.2199 29.3457L91.1985 29.4041C90.9338 32.3203 92.2459 34.8627 93.7137 36.9243C93.7974 37.0489 93.8908 37.1929 93.9921 37.3175C95.8317 35.5402 97.1497 33.4358 96.9219 30.6558ZM96.0439 27.2627C95.8765 26.1842 95.7597 25.2478 95.5417 24.2764L93.8461 27.2899C93.7624 27.1829 93.6786 27.0816 93.5988 26.9882C92.6488 25.9759 91.253 25.3257 89.7365 24.7767C89.7132 24.7787 89.6956 24.767 89.6645 24.7534C89.6956 24.8468 89.7132 24.9422 89.7404 25.0356C90.2388 26.7663 91.2452 27.8253 92.5787 29.1607C92.9817 29.554 93.3419 29.9492 93.6397 30.3813C93.85 30.7084 94.0329 31.0569 94.1595 31.4443C95.3859 30.4631 96.2425 29.0693 96.0439 27.2627ZM46.6225 8.81165C46.6984 8.72794 46.7665 8.64618 46.8327 8.57415L46.7062 8.51575C46.6809 8.52743 46.6594 8.52937 46.6225 8.543C45.4895 8.86032 44.4947 9.38788 43.6946 10.1237C43.1826 10.589 42.7563 11.136 42.4097 11.7746C42.0107 12.8083 41.9639 13.8322 41.9717 14.8173C42.5908 14.7861 43.1612 14.3326 43.7335 13.8128C43.9399 13.6103 44.1404 13.4079 44.3584 13.2171C44.74 12.6954 44.9366 12.0724 45.2442 11.5546C45.6452 10.5131 45.98 9.60202 46.6225 8.81165ZM34.3464 28.8356L32.353 25.6528L32.2264 25.6313L32.168 25.6547C31.329 28.3159 32.5457 31.0627 33.9259 32.9627C34.1128 32.6415 34.3289 32.3456 34.5586 32.0516C35.822 30.5098 37.6422 29.3145 38.088 27.3367C38.1445 27.1031 38.1756 26.8695 38.1854 26.6222C38.1503 26.6222 38.1133 26.6222 38.0802 26.6339C37.5644 26.7215 36.7818 27.2023 36.2114 27.4866C35.5573 27.8701 35.0803 28.275 34.5216 28.6916C34.4632 28.7422 34.4009 28.787 34.3464 28.8356ZM34.1985 34.3312L31 31.9368C31.0545 34.6525 32.6022 36.6401 34.3464 38.4505C34.4282 38.178 34.5216 37.9327 34.6229 37.6835C35.1738 36.4084 36.0323 35.472 36.5929 34.1755C37.0718 33.1827 37.323 32.04 37.1127 31.0121L36.9472 31.0491C36.5229 31.9815 35.2847 32.7349 34.58 33.6713C34.4243 33.8718 34.288 34.0957 34.1985 34.3312ZM38.2944 19.8807C38.3333 19.0456 38.271 18.0021 37.9712 17.0891C37.7765 16.5168 37.4884 16.0009 37.0582 15.6213C35.8668 17.8522 35.9719 20.3985 36.6922 22.7171C37.1147 22.4913 37.5702 22.3083 38.0277 22.1389C38.9855 21.8002 40.0055 21.5082 40.8913 21.002C41.5902 20.6068 42.2073 20.0851 42.6667 19.2928C42.1177 19.2636 41.4909 19.2461 40.8718 19.2889C39.9724 19.3454 39.0575 19.5108 38.2944 19.8807ZM41.3702 15.8335C41.3994 14.5973 41.2826 13.1178 40.7881 11.903C40.6285 11.5059 40.4241 11.1321 40.1788 10.809L40.1204 10.8109C39.0224 13.2521 38.8141 15.6972 39.2307 18.298C39.1548 18.5569 39.1899 18.6621 39.1587 18.8509C39.6337 18.5725 40.2314 18.4265 40.8621 18.2922C41.1463 18.2299 41.4403 18.1812 41.7284 18.117C42.5246 17.9301 43.1923 17.5953 43.7725 17.1319C44.3896 16.653 44.8879 16.0379 45.3415 15.3643C45.361 15.1385 45.4447 15.1385 45.5128 14.9867L43.753 15.3468L41.3702 15.8335ZM38.0355 23.1123L35.9895 23.78C35.8688 22.2304 35.0356 21.0059 34.4146 19.653C34.4146 19.6432 34.4146 19.6432 34.4146 19.6432L34.3737 19.725C33.3575 22.318 33.0246 25.1875 34.5022 27.4924C34.5294 27.5391 34.5508 27.5742 34.5878 27.6131C35.2536 27.2413 35.9895 26.6689 36.7117 26.2738C37.247 25.8688 37.6286 25.4191 38.0569 25.0259C38.1815 24.9188 38.3138 24.8118 38.4404 24.7047C39.0789 24.0058 39.4546 23.3537 39.8595 22.5283L38.0355 23.1123ZM33.9415 48.1569C34.1576 48.6163 34.4321 49.0115 34.7513 49.3658C35.6838 50.3664 36.9901 50.9816 38.3606 51.5403C38.489 51.6006 38.6195 51.6473 38.746 51.7038C39.5286 51.844 40.1944 51.9705 40.7219 52.4572C39.6162 50.0841 42.2306 47.0881 40.4124 44.9545C40.3034 44.7832 40.173 44.6547 40.0678 44.5749L40.0406 44.6547L38.4988 49.2217C38.4404 49.1808 38.3917 49.1497 38.3333 49.1263C37.3191 48.5637 36.0576 48.3204 34.7377 48.225C34.5995 48.2172 34.4691 48.2055 34.3289 48.2055C34.1732 48.1296 34.0933 48.1296 33.9415 48.1569ZM45.2111 61.5094C45.6394 62.2317 46.3713 62.6775 47.2298 62.9247C47.4323 62.9656 47.6328 63.0123 47.8353 63.0571C49.1941 63.2167 50.5529 62.695 51.8883 62.3465C52.4704 62.183 53.0719 62.0623 53.656 62.0312C53.0252 60.8145 52.5113 59.4732 51.8416 58.2818C51.1213 56.9853 50.2025 55.8717 48.7541 55.2507L48.7171 55.2741C49.9961 56.6018 49.2038 58.9359 50.3232 60.3161C50.3796 60.4232 50.3796 60.4913 50.3796 60.4913C49.3265 60.5984 48.2616 60.8943 47.2045 61.2447C47.1052 61.2836 46.9884 61.3167 46.8814 61.3634C46.2662 61.4218 45.7289 61.5562 45.2111 61.5094ZM94.3658 44.8669C95.3762 43.7261 95.7792 42.0675 96.0867 40.3875C95.3976 41.3122 94.6014 41.8359 93.774 42.3654C93.3788 42.6126 92.9856 42.8793 92.5885 43.1596C92.1213 42.2622 91.5626 41.4952 91.033 40.6542C90.7488 40.2123 90.6943 39.7081 90.451 39.2389L90.3848 39.2798C89.5321 41.6412 90.1434 44.0902 91.0973 46.3211C92.0317 46.1926 93.0401 45.85 93.811 45.3244C94.0018 45.1881 94.1906 45.0343 94.3658 44.8669ZM38.3742 53.1035C38.0705 53.0685 37.7629 53.0392 37.4806 53.0042C37.7201 53.4753 38.0316 53.8822 38.3898 54.2326C39.1607 54.986 40.1632 55.4804 41.2826 55.8484C41.8822 56.0469 42.5304 56.2027 43.1884 56.3506C43.5408 56.3584 43.8815 56.3896 44.2085 56.4343C44.5278 56.4733 44.8315 56.518 45.1488 56.5862C44.6212 55.6011 44.4032 54.4234 44.1715 53.2592C43.8347 51.6551 43.4298 50.1114 42.0944 49.1108L42.071 49.1711C42.1664 50.711 41.4597 52.2119 41.9912 53.7556C41.7556 53.6719 41.5123 53.6038 41.2514 53.5357C40.354 53.3235 39.3359 53.2106 38.3742 53.1035ZM31.257 36.936C31.1207 38.3103 31.7573 39.8521 32.6508 40.7457C33.3614 41.3239 34.0252 41.9897 34.6754 42.5892C35.0219 42.9124 35.3665 43.2161 35.7208 43.4906C35.8668 40.8255 38.7304 38.7873 37.2529 35.7874L37.1614 35.7893L34.689 39.6886C34.6754 39.6672 34.6657 39.6516 34.6404 39.6322C33.776 38.8107 33.0012 37.8431 31.7534 37.3175C31.549 37.1657 31.4439 37.0138 31.257 36.936ZM34.689 43.6249C34.0797 43.329 33.4139 43.0896 32.7443 42.8034C32.9078 44.0434 33.4373 45.3731 34.434 46.2452C34.5352 46.3172 34.6267 46.3737 34.7182 46.4438C35.7753 47.1173 36.9842 47.4288 37.9128 48.299C38.0627 47.9797 38.1912 47.6643 38.3138 47.3295C39.077 45.303 39.4624 42.965 38.5319 40.9073C38.3917 40.7476 38.3099 40.6523 38.236 40.5004C38.236 40.4887 38.2243 40.4654 38.2087 40.4595L38.1055 40.3972L38.0627 40.4576C38.0296 42.0773 37.0855 43.4847 36.5092 44.9136C35.9758 44.3238 35.3529 43.9364 34.689 43.6249ZM41.2242 57.8146C41.2106 57.9216 41.2495 58.0229 41.3079 58.1299C41.5337 58.5251 42.1372 58.8483 42.4701 59.0916C43.0522 59.4109 43.642 59.5861 44.2494 59.6581C45.2247 59.7788 46.2234 59.6464 47.1967 59.5549C47.8878 59.4868 48.5692 59.4342 49.2155 59.4712C48.3628 57.8516 48.1584 55.6167 47.1325 54.0613C46.7899 53.5298 46.3499 53.084 45.7601 52.7609C45.4174 52.7083 45.2889 52.5058 44.9833 52.5136C45.8788 53.7946 45.2344 55.8562 46.1981 57.2481C46.2253 57.3512 46.2253 57.4194 46.202 57.5303C45.5303 57.3473 44.8723 57.3824 44.228 57.47C43.2546 57.6218 42.2949 57.9041 41.3098 57.8321C41.2729 57.8146 41.2476 57.8146 41.2242 57.8146ZM90.0285 50.4715C91.4477 49.8739 92.8396 49.2938 93.8383 48.1822C94.1361 47.8512 94.397 47.4755 94.6111 47.0336C94.7961 46.8253 94.8408 46.7981 94.9245 46.6229C94.5956 46.6618 94.2218 46.6988 93.8227 46.7591C92.7442 46.9226 91.4808 47.201 90.5444 47.7013L89.974 45.9454L89.1525 43.4088H89.098C87.4803 45.5152 88.3096 48.2873 88.9209 50.7246C88.9617 50.8317 88.9617 50.9037 88.9617 50.9037C89.3063 50.7616 89.6781 50.6136 90.0285 50.4715ZM51.9039 63.754C51.3686 64.0538 50.8196 64.3439 50.1402 64.4996C50.6366 64.8617 51.2615 65.1109 51.9234 65.2452C52.8403 65.436 53.8351 65.4126 54.6683 65.2043C56.0037 64.8461 56.6578 63.68 58.0341 63.6878C59.5876 64.1142 61.2365 64.2991 62.6362 64.9532C61.5071 65.7183 59.5 65.6676 58.4741 66.6527L59.1613 67.9375C59.1847 68.0057 59.354 68.0407 59.5273 68.1088C61.4506 67.3944 63.3935 65.6676 65.5212 65.5431C67.102 66.3801 68.9397 67.007 70.5224 67.8129C71.1181 67.5209 71.2349 66.7948 71.4315 66.2283C71.4315 66.1212 71.4276 65.9927 71.4276 65.9927L67.2129 64.7274C68.3187 64.0421 70.0123 63.5379 71.5522 63.5185C73.3841 64.5639 75.6539 65.1498 77.6318 64.5327C78.1516 64.3692 78.648 64.1336 79.121 63.7988C79.3508 63.5593 79.4987 63.4523 79.7167 63.4036C78.9906 63.4834 78.3054 63.3841 77.626 63.2128C76.4501 62.9247 75.3133 62.4069 74.1004 62.1246C74.7565 61.0033 75.8233 59.479 76.0355 57.6082C76.1601 57.5128 76.2185 57.3843 76.2185 57.2169C76.1776 57.2169 76.162 57.2169 76.1348 57.1936C73.458 58.0832 72.7942 60.8476 70.6781 62.5996C66.518 64.6534 61.7485 64.2952 57.8064 62.2239C56.4943 60.4057 55.1919 58.3343 52.9668 57.6413C53.1985 58.5037 53.6384 59.7204 53.7397 60.8047C54.1582 61.416 54.423 62.0818 54.9466 62.4322C54.9466 62.5159 54.9466 62.5957 54.9019 62.6405C53.6754 62.6619 52.8228 63.2401 51.9039 63.754ZM88.9676 54.4565C89.3978 54.145 89.7443 53.7498 90.0597 53.3429C90.56 52.7044 90.9941 52.0542 91.6268 51.6473L90.0461 51.9432L87.7178 52.3852L87.1474 47.5904L87.0247 47.5943C86.3142 48.1647 85.8879 48.9784 85.6056 49.8836C85.1306 51.404 85.0313 53.2417 84.5699 54.7855C84.5349 54.877 84.5174 54.9723 84.4804 55.0697C84.5018 55.0697 84.5388 55.0697 84.5738 55.0697C84.9048 55.1008 85.2766 55.13 85.6659 55.1495C86.8145 55.1865 88.1052 55.1106 88.9676 54.4565ZM81.9146 58.86C82.8081 58.8638 83.7212 58.7354 84.5991 58.4803C84.971 58.3694 85.3369 58.2487 85.6893 58.1046C86.6335 57.7055 87.4881 57.1702 88.1519 56.5375C87.379 56.5453 86.5283 56.3097 85.6718 56.1306C85.3058 56.043 84.9359 55.9749 84.5758 55.9438C84.2039 55.9029 83.838 55.8951 83.4778 55.9438C83.4369 54.6511 83.5732 52.8563 84.0755 51.624C83.0709 52.0951 82.3915 52.8563 81.8679 53.7537C81.0366 55.1904 80.6375 57.0086 79.9951 58.6127C80.5986 58.7801 81.2566 58.8677 81.9146 58.86ZM77.6065 62.0798C79.0938 62.4984 80.6103 62.7378 81.9457 61.8774C82.0392 61.817 82.1326 61.7567 82.2163 61.6866C82.8315 61.2914 83.3415 60.9176 83.8613 60.4582C83.287 60.6607 82.6115 60.6665 81.9341 60.5731C80.9334 60.4329 79.8997 60.0669 78.9789 59.7827C79.4384 58.2078 79.1425 56.5083 79.999 55.0308L79.9406 55.0346C78.8543 55.4298 78.1263 56.1832 77.5481 57.0962C76.7188 58.4083 76.2204 60.0552 75.5099 61.4608C76.1893 61.6399 76.8959 61.8754 77.6065 62.0798ZM66.4245 33.391C66.9326 33.2158 67.3025 32.9491 67.5614 32.5967C67.8164 32.2444 67.9371 31.8316 67.9371 31.3664C67.9371 30.8836 67.8184 30.4748 67.575 30.1322C67.3395 29.7895 66.9852 29.5462 66.5316 29.4021C66.0819 29.2561 65.2643 29.1841 64.0885 29.1841H62.0833V33.6499H64.0904C65.1475 33.6518 65.9262 33.5681 66.4245 33.391ZM67.7639 40.5062C68.126 40.0546 68.2992 39.5037 68.2992 38.8691C68.2992 38.3259 68.1746 37.8645 67.9216 37.4888C67.6646 37.117 67.2869 36.8289 66.7788 36.6362C66.2688 36.4434 65.4998 36.348 64.4603 36.348H62.0872V40.3213C62.097 40.88 62.1164 41.2071 62.1515 41.3064C62.1923 41.427 62.2663 41.5108 62.3656 41.5653C62.4649 41.6061 62.7355 41.6373 63.1832 41.6373H64.5226C65.2993 41.6373 65.9417 41.5653 66.4537 41.4212C66.9696 41.2713 67.4018 40.9676 67.7639 40.5062ZM86.211 35.1099C86.211 47.3548 76.2749 57.2909 64.0262 57.2909C51.7813 57.2909 41.851 47.3548 41.851 35.1099C41.851 22.8612 51.7813 12.9329 64.0262 12.9329C76.2769 12.9329 86.211 22.8612 86.211 35.1099ZM79.6525 26.4061C80.439 27.7552 81.0483 29.2016 81.4591 30.7026C81.5545 31.0569 81.8737 31.2885 82.228 31.2885C82.2942 31.2885 82.3643 31.2807 82.4344 31.2593C82.8568 31.1425 83.106 30.7084 82.9872 30.284C82.5414 28.6488 81.8854 27.0739 81.0249 25.6041C80.8069 25.2245 80.3202 25.0979 79.9367 25.3199C79.5649 25.5418 79.4345 26.0265 79.6525 26.4061ZM73.0979 19.8963C74.4431 20.6672 75.6948 21.6211 76.8006 22.7229C76.9563 22.8748 77.1626 22.9507 77.3632 22.9507C77.5656 22.9507 77.77 22.8728 77.9258 22.7151C78.2333 22.4056 78.2294 21.9014 77.9199 21.5938C76.713 20.3947 75.3561 19.3609 73.8844 18.5161C73.5067 18.298 73.0239 18.4265 72.8 18.8061C72.5878 19.1916 72.7183 19.6763 73.0979 19.8963ZM63.3974 16.7407C63.3974 17.1806 63.7809 17.5349 64.2247 17.5349C65.7724 17.5349 67.3083 17.7335 68.7917 18.1228C68.8599 18.1403 68.928 18.1501 68.9942 18.1501C69.3485 18.1501 69.6678 17.9145 69.7632 17.5583C69.88 17.1339 69.6269 16.6998 69.2005 16.5869C67.5887 16.1605 65.9145 15.9444 64.2267 15.9444H64.1702C63.7264 15.9464 63.3974 16.3026 63.3974 16.7407ZM54.1621 19.6627C54.3101 19.9158 54.5768 20.0579 54.8513 20.0579C54.9875 20.0579 55.1277 20.0209 55.2503 19.9489C56.5994 19.1643 58.0478 18.5589 59.5467 18.154C59.9731 18.0391 60.2242 17.6031 60.1055 17.1806C59.9925 16.7562 59.5565 16.5051 59.136 16.62C57.4968 17.0638 55.9219 17.7199 54.4522 18.5764C54.0706 18.7983 53.9402 19.2831 54.1621 19.6627ZM47.6464 26.7935C47.7691 26.8656 47.9073 26.8987 48.0416 26.8987C48.3161 26.8987 48.5828 26.7565 48.7308 26.4996C49.5036 25.1505 50.4575 23.9046 51.5593 22.7969C51.8669 22.4874 51.8669 21.9832 51.5554 21.6756C51.2479 21.3661 50.7417 21.3661 50.4341 21.6775C49.233 22.8826 48.1993 24.2375 47.3505 25.7073C47.1305 26.0888 47.2688 26.5735 47.6464 26.7935ZM45.5693 36.2059C46.0092 36.2059 46.3616 35.8322 46.3616 35.3942C46.3616 33.8387 46.5621 32.2969 46.9573 30.8096C47.0702 30.3852 46.8171 29.9531 46.3908 29.8382C45.9645 29.7253 45.5362 29.9784 45.4213 30.4028C44.9892 32.0244 44.775 33.7025 44.775 35.3942V35.4331C44.7692 35.8711 45.1274 36.2059 45.5693 36.2059ZM48.7638 44.351C47.9793 42.9981 47.3739 41.5497 46.9709 40.0507C46.8541 39.6244 46.418 39.3733 45.9976 39.4901C45.5712 39.6069 45.3201 40.039 45.4369 40.4654C45.8788 42.1006 46.5329 43.6736 47.3895 45.1492C47.5335 45.4042 47.8041 45.5405 48.0786 45.5405C48.2129 45.5405 48.3531 45.5054 48.4757 45.4334C48.8553 45.2134 48.9858 44.7267 48.7638 44.351ZM55.3107 50.8784C53.9635 50.0997 52.7176 49.1439 51.6119 48.042C51.3043 47.7344 50.7982 47.7344 50.4886 48.0459C50.1811 48.3574 50.1811 48.8596 50.4925 49.1672C51.6937 50.3645 53.0486 51.4021 54.5203 52.2547C54.643 52.3229 54.7812 52.3579 54.9155 52.3579C55.1919 52.3579 55.4547 52.2177 55.6046 51.9627C55.8207 51.5831 55.6903 51.0964 55.3107 50.8784ZM65.0248 54.0496C65.0248 53.6077 64.6588 53.2553 64.2247 53.2553C62.6615 53.2553 61.1119 53.0529 59.6149 52.6577C59.1847 52.5428 58.7603 52.7979 58.6454 53.2203C58.5325 53.6466 58.7856 54.0788 59.2119 54.1898C60.8394 54.6239 62.5272 54.84 64.2247 54.84H64.2442C64.6783 54.8419 65.0248 54.4876 65.0248 54.0496ZM65.2156 44.5554V47.5748H68.3206V44.3004C68.8443 44.1972 69.2998 44.0726 69.6911 43.9169C70.7638 43.4867 71.5931 42.8637 72.1732 42.0422C72.7592 41.2285 73.0512 40.331 73.0512 39.3577C73.0512 38.5459 72.8584 37.8042 72.473 37.1423C72.0895 36.4804 71.5658 35.9665 70.9117 35.5986C70.4562 35.3358 69.7982 35.0924 68.9397 34.8763C69.734 34.6038 70.3803 34.2631 70.8669 33.8465C71.3575 33.4299 71.7254 32.951 71.9863 32.4098C72.2472 31.8667 72.3737 31.2905 72.3737 30.687C72.3737 29.8538 72.1284 29.0926 71.6417 28.3918C71.1492 27.6968 70.4503 27.1615 69.5373 26.7935C69.1811 26.6456 68.7664 26.5385 68.3089 26.449V23.2155H65.2039V26.2329H63.2105V23.2155H60.1074V26.2329H55.373V28.7675H56.0972C56.578 28.7675 56.9031 28.8123 57.0764 28.8999C57.2477 28.9855 57.3664 29.1043 57.4384 29.2542C57.5105 29.4021 57.5436 29.7506 57.5436 30.2898V40.5101C57.5436 41.0416 57.5105 41.3881 57.4384 41.5438C57.3703 41.6957 57.2477 41.8144 57.0764 41.8982C56.9031 41.9858 56.578 42.0227 56.0972 42.0227H55.373V44.5554H60.1113V47.5709H63.2144V44.5554H64.9801C65.0677 44.5593 65.1358 44.5554 65.2156 44.5554ZM74.2465 51.1451C74.0245 50.7655 73.5378 50.635 73.1582 50.8609C71.8111 51.6435 70.3588 52.245 68.854 52.648C68.4296 52.7628 68.1766 53.195 68.2914 53.6213C68.3927 53.9756 68.71 54.2112 69.0623 54.2112C69.1305 54.2112 69.1947 54.2034 69.2648 54.1839C70.9078 53.7381 72.4808 53.0899 73.9525 52.2372C74.336 52.0114 74.4625 51.5286 74.2465 51.1451ZM80.7777 44.0318C80.4 43.8157 79.9173 43.9403 79.6914 44.316C78.9147 45.6651 77.9511 46.909 76.8512 48.0109C76.5416 48.3223 76.5416 48.8246 76.8512 49.1361C77.0069 49.2918 77.2152 49.3677 77.4138 49.3677C77.6123 49.3677 77.8206 49.2918 77.9744 49.1361C79.1756 47.931 80.2132 46.5781 81.0658 45.1102C81.2839 44.7306 81.1573 44.244 80.7777 44.0318ZM83.6666 35.3494L82.8743 35.3182H83.6666C83.6666 34.8763 83.3065 34.559 82.8782 34.559C82.4344 34.559 82.084 34.9522 82.084 35.3942C82.084 36.9613 81.8815 38.5167 81.4766 40.0157C81.3598 40.442 81.6148 40.8742 82.0392 40.989C82.1073 41.0085 82.1735 41.0202 82.2416 41.0202C82.596 41.0202 82.9152 40.7846 83.0126 40.4264C83.4506 38.7931 83.6686 37.1014 83.6666 35.3494Z" fill="white"/>
</g>
<defs>
<clipPath id="clip0">
<rect width="66.064" height="66.064" fill="white" transform="translate(31 5)"/>
</clipPath>
</defs>
</svg>
