<svg width="99" height="101" viewBox="0 0 99 101" fill="none" xmlns="http://www.w3.org/2000/svg">
<circle cx="2.60526" cy="4.60526" r="2.60526" fill="#4F4F4F"/>
<circle cx="2.60526" cy="67.1316" r="2.60526" fill="#4F4F4F"/>
<circle cx="2.60526" cy="35.8684" r="2.60526" fill="#4F4F4F"/>
<circle cx="2.60526" cy="98.3947" r="2.60526" fill="#4F4F4F"/>
<circle cx="33.868" cy="4.60526" r="2.60526" fill="#4F4F4F"/>
<circle cx="33.868" cy="67.1316" r="2.60526" fill="#4F4F4F"/>
<circle cx="33.868" cy="35.8684" r="2.60526" fill="#4F4F4F"/>
<circle cx="33.868" cy="98.3947" r="2.60526" fill="#4F4F4F"/>
<circle cx="65.1316" cy="4.60526" r="2.60526" fill="#4F4F4F"/>
<circle cx="65.1316" cy="67.1316" r="2.60526" fill="#4F4F4F"/>
<circle cx="65.1316" cy="35.8684" r="2.60526" fill="#4F4F4F"/>
<circle cx="65.1316" cy="98.3947" r="2.60526" fill="#4F4F4F"/>
<circle cx="96.3943" cy="4.60526" r="2.60526" fill="#4F4F4F"/>
<circle cx="96.3943" cy="67.1316" r="2.60526" fill="#4F4F4F"/>
<circle cx="96.3943" cy="35.8684" r="2.60526" fill="#4F4F4F"/>
<circle cx="96.3943" cy="98.3947" r="2.60526" fill="#4F4F4F"/>
<circle cx="43" cy="25" r="23" stroke="#FF9900" stroke-width="4"/>
<path d="M64.5156 58.2109H57.4844V65.2422H64.5156C66.4492 65.2422 68.0312 63.6602 68.0312 61.7266C68.0312 59.793 66.4492 58.2109 64.5156 58.2109Z" fill="white"/>
<path d="M64.5156 68.7578H57.4844V75.7891H64.5156C66.4492 75.7891 68.0312 74.207 68.0312 72.2734C68.0312 70.3398 66.4492 68.7578 64.5156 68.7578Z" fill="white"/>
<path d="M61 37C44.5118 37 31 50.5118 31 67C31 83.4882 44.5118 97 61 97C77.4882 97 91 83.4882 91 67C91 50.5118 77.4882 37 61 37ZM79.6974 85.6974C74.6757 90.719 68.0354 93.4844 61 93.4844C53.9646 93.4844 47.3243 90.719 42.3026 85.6974C37.281 80.6757 34.5156 74.0354 34.5156 67C34.5156 59.9646 37.281 53.3243 42.3026 48.3026C47.3243 43.281 53.9646 40.5156 61 40.5156C68.0354 40.5156 74.6757 43.281 79.6974 48.3026C84.719 53.3243 87.4844 59.9646 87.4844 67C87.4844 74.0354 84.719 80.6757 79.6974 85.6974Z" fill="white"/>
<path d="M77.2112 50.7888C72.8538 46.4313 67.0965 44.0312 61 44.0312C54.9035 44.0312 49.1462 46.4313 44.7888 50.7888C40.4313 55.1462 38.0312 60.9035 38.0312 67C38.0312 73.0965 40.4313 78.8538 44.7888 83.2112C49.1462 87.5687 54.9035 89.9688 61 89.9688C67.0965 89.9688 72.8538 87.5687 77.2112 83.2112C81.5687 78.8538 83.9688 73.0965 83.9688 67C83.9688 60.9035 81.5687 55.1462 77.2112 50.7888ZM71.5469 72.2734C71.5469 76.1406 68.3828 79.3047 64.5156 79.3047V82.8203H61V79.3047H57.4844V82.8203H53.9688V79.3047H50.4531V75.7891H53.9688V58.2109H50.4531V54.6953H53.9688V51.1797H57.4844V54.6953H61V51.1797H64.5156V54.6953C68.3828 54.6953 71.5469 57.8594 71.5469 61.7266C71.5469 63.8359 70.5975 65.7343 69.1212 67C70.5975 68.2657 71.5469 70.1641 71.5469 72.2734Z" fill="white"/>
</svg>
