<svg width="99" height="105" viewBox="0 0 99 105" fill="none" xmlns="http://www.w3.org/2000/svg">
<circle cx="2.60526" cy="7.60526" r="2.60526" fill="#4F4F4F"/>
<circle cx="2.60526" cy="70.1316" r="2.60526" fill="#4F4F4F"/>
<circle cx="2.60526" cy="38.8684" r="2.60526" fill="#4F4F4F"/>
<circle cx="2.60526" cy="101.395" r="2.60526" fill="#4F4F4F"/>
<circle cx="33.868" cy="7.60526" r="2.60526" fill="#4F4F4F"/>
<circle cx="33.868" cy="70.1316" r="2.60526" fill="#4F4F4F"/>
<circle cx="33.868" cy="38.8684" r="2.60526" fill="#4F4F4F"/>
<circle cx="33.868" cy="101.395" r="2.60526" fill="#4F4F4F"/>
<circle cx="65.1316" cy="7.60526" r="2.60526" fill="#4F4F4F"/>
<circle cx="65.1316" cy="70.1316" r="2.60526" fill="#4F4F4F"/>
<circle cx="65.1316" cy="38.8684" r="2.60526" fill="#4F4F4F"/>
<circle cx="65.1316" cy="101.395" r="2.60526" fill="#4F4F4F"/>
<circle cx="96.3943" cy="7.60526" r="2.60526" fill="#4F4F4F"/>
<circle cx="96.3943" cy="70.1316" r="2.60526" fill="#4F4F4F"/>
<circle cx="96.3943" cy="38.8684" r="2.60526" fill="#4F4F4F"/>
<circle cx="96.3943" cy="101.395" r="2.60526" fill="#4F4F4F"/>
<circle cx="59" cy="25" r="23" stroke="#FF9900" stroke-width="4"/>
<path d="M56.883 58.734H54.6176V45.3496C54.6176 41.8477 51.768 39 48.27 39H23.4385C19.9346 39 17.0889 41.8496 17.0889 45.3496V58.734H14.8235C11.6109 58.734 9 61.3429 9 64.5575V99.1765C9 102.391 11.6109 105 14.8235 105H56.8849C60.0995 105 62.7085 102.391 62.7085 99.1765V64.5575C62.7065 61.3429 60.0956 58.734 56.883 58.734ZM22.9105 45.3496C22.9105 45.0604 23.1473 44.8235 23.4365 44.8235H48.2681C48.5554 44.8235 48.7941 45.0604 48.7941 45.3496V58.734H22.9085L22.9105 45.3496ZM35.8523 98.3961C26.2571 98.3961 18.4691 90.6101 18.4691 81.009C18.4691 71.4099 26.2571 63.6258 35.8523 63.6258C45.4456 63.6258 53.2355 71.4099 53.2355 81.009C53.2355 90.6101 45.4456 98.3961 35.8523 98.3961ZM20.8819 82.0165C20.3462 82.0165 19.9114 81.6185 19.9114 81.0847V81.009C19.9114 78.9281 20.3074 76.9034 21.0877 74.9875C21.2896 74.4905 21.8564 74.2518 22.3514 74.4575C22.8464 74.6594 23.0852 75.2262 22.8794 75.7232C22.1922 77.3984 21.8486 79.1785 21.8486 81.009C21.8525 81.5448 21.4177 82.0165 20.8819 82.0165ZM34.8293 66.0406C34.8293 65.5029 35.2078 65.07 35.7475 65.07H35.8542C37.9196 65.07 39.9385 65.4582 41.8408 66.2308C42.3378 66.4327 42.5785 66.9995 42.3746 67.4926C42.2232 67.8692 41.8544 68.1002 41.472 68.1002C41.3516 68.1002 41.2294 68.0749 41.1071 68.0303C39.4396 67.3509 37.6692 67.0112 35.8484 67.0112C35.3185 67.0112 34.8293 66.5744 34.8293 66.0406ZM25.9892 90.9478C26.3677 91.3244 26.3716 91.9398 25.9931 92.3202C25.8028 92.5124 25.5544 92.6056 25.3059 92.6056C25.0594 92.6056 24.8128 92.5105 24.6206 92.3222C23.124 90.8372 21.9574 89.1076 21.1479 87.1742C20.9421 86.6811 21.1731 86.1124 21.6701 85.9085C22.1689 85.7047 22.7338 85.9357 22.9396 86.4326C23.6481 88.1215 24.6731 89.6414 25.9892 90.9478ZM24.5197 71.1789C24.1392 70.8042 24.1354 70.1869 24.5119 69.8065C25.9931 68.3079 27.7188 67.1354 29.6483 66.3201C30.1375 66.1163 30.7101 66.3415 30.9198 66.8384C31.1255 67.3334 30.8965 67.9022 30.4015 68.1099C28.7068 68.8223 27.1888 69.8531 25.8882 71.1711C25.6961 71.3633 25.4456 71.4545 25.2011 71.4545C24.9565 71.4623 24.7099 71.3672 24.5197 71.1789ZM47.0296 69.6415C48.5321 71.1206 49.7123 72.8444 50.5315 74.7759C50.7392 75.2689 50.5101 75.8416 50.0151 76.0474C49.8948 76.0978 49.7628 76.125 49.6405 76.125C49.2639 76.125 48.9048 75.9037 48.7456 75.5329C48.0254 73.8422 46.9946 72.3242 45.6708 71.0255C45.2884 70.6509 45.2845 70.0355 45.6572 69.6531C46.0338 69.2707 46.6511 69.2668 47.0296 69.6415ZM50.8226 79.9666C51.3565 79.9666 51.7932 80.3315 51.7932 80.8692V81.009C51.7932 83.121 51.3875 85.1748 50.5878 87.1043C50.4364 87.477 50.0714 87.7061 49.6909 87.7061C49.5686 87.7061 49.4405 87.6828 49.3221 87.6323C48.8291 87.4304 48.5942 86.8616 48.7961 86.3686C49.4929 84.6739 49.854 82.8725 49.854 81.0187C49.8521 80.4713 50.2888 79.9666 50.8226 79.9666ZM47.1364 90.8915C47.5129 91.2681 47.5129 91.8874 47.1364 92.2678C45.6475 93.7586 43.914 94.9214 41.9825 95.7289C41.8622 95.7755 41.7302 95.8046 41.6098 95.8046C41.2352 95.8046 40.8683 95.5814 40.713 95.2029C40.5111 94.7079 40.746 94.1391 41.2391 93.9333C42.9376 93.2306 44.4614 92.2018 45.7698 90.8954C46.1444 90.5169 46.7598 90.5188 47.1364 90.8915ZM36.8423 95.9813C36.8423 96.5171 36.4288 96.9519 35.895 96.9519H35.8542C33.7616 96.9519 31.7234 96.5539 29.7978 95.7658C29.3008 95.562 29.064 94.9952 29.2698 94.5002C29.4736 94.0032 30.0482 93.7684 30.5335 93.9741C32.2242 94.6632 34.0159 95.0204 35.8542 95.0204C36.3842 95.0107 36.8423 95.4455 36.8423 95.9813ZM42.2426 86.3472C42.7085 85.6872 42.9473 84.9709 42.9473 84.1925C42.9473 83.5384 42.7939 82.9463 42.4814 82.4183C42.1708 81.8903 41.7515 81.4729 41.2274 81.1759C40.8625 80.9682 40.3325 80.7702 39.6473 80.5955C40.2879 80.3762 40.8062 80.0986 41.1983 79.7647C41.5885 79.4308 41.8874 79.0465 42.099 78.6078C42.3048 78.171 42.4096 77.7129 42.4096 77.2276C42.4096 76.5598 42.2077 75.9464 41.8234 75.3874C41.4293 74.8283 40.8625 74.3993 40.1326 74.1042C39.8492 73.9858 39.5192 73.9004 39.1465 73.8305V71.2332H36.6559V73.6578H35.0525V71.2332H32.5678V73.6578H28.7651V75.6882H29.3455C29.7279 75.6882 29.9938 75.7271 30.1297 75.795C30.2656 75.8649 30.3646 75.96 30.4209 76.0784C30.4772 76.1988 30.5005 76.4763 30.5005 76.9092V85.1146C30.5005 85.5475 30.4772 85.8231 30.4209 85.9493C30.3646 86.0716 30.2656 86.1648 30.1297 86.2327C29.9938 86.3006 29.7279 86.3356 29.3455 86.3356H28.7651V88.3719H32.5678V90.7906H35.0525V88.3641H36.4696C36.5336 88.3641 36.5899 88.3641 36.6559 88.3641V90.7848H39.1465V88.1584C39.5677 88.0749 39.9307 87.972 40.2413 87.8478C41.1071 87.5022 41.7709 87.0053 42.2426 86.3472ZM34.1421 76.026H35.7533C36.6909 76.026 37.347 76.0823 37.7139 76.2026C38.0788 76.3191 38.3584 76.5113 38.5544 76.7869C38.7505 77.0626 38.8398 77.3926 38.8398 77.7789C38.8398 78.1516 38.7388 78.4816 38.5389 78.765C38.3351 79.0484 38.0284 79.2658 37.6246 79.4017C37.2189 79.5454 36.5977 79.6133 35.7533 79.6133H34.1421V76.026ZM38.6981 85.1146C38.4146 85.4815 38.0614 85.7241 37.6537 85.8386C37.2383 85.9571 36.7239 86.0134 36.0969 86.0134H35.0215C34.6643 86.0134 34.4449 85.992 34.3654 85.9571C34.2819 85.9182 34.2256 85.8503 34.1906 85.7552C34.1615 85.6795 34.146 85.4135 34.1421 84.9632V81.7777H36.0445C36.8772 81.7777 37.5004 81.8573 37.9041 82.0068C38.3137 82.1601 38.6126 82.3911 38.8223 82.6939C39.0242 82.9968 39.129 83.3675 39.129 83.8004C39.1309 84.3129 38.9854 84.7496 38.6981 85.1146Z" fill="white"/>
</svg>
