<svg width="99" height="99" viewBox="0 0 99 99" fill="none" xmlns="http://www.w3.org/2000/svg">
<circle cx="2.60526" cy="2.60526" r="2.60526" fill="#4F4F4F"/>
<circle cx="2.60526" cy="65.1316" r="2.60526" fill="#4F4F4F"/>
<circle cx="2.60526" cy="33.8684" r="2.60526" fill="#4F4F4F"/>
<circle cx="2.60526" cy="96.3947" r="2.60526" fill="#4F4F4F"/>
<circle cx="33.868" cy="2.60526" r="2.60526" fill="#4F4F4F"/>
<circle cx="33.868" cy="65.1316" r="2.60526" fill="#4F4F4F"/>
<circle cx="33.868" cy="33.8684" r="2.60526" fill="#4F4F4F"/>
<circle cx="33.868" cy="96.3947" r="2.60526" fill="#4F4F4F"/>
<circle cx="65.1316" cy="2.60526" r="2.60526" fill="#4F4F4F"/>
<circle cx="65.1316" cy="65.1316" r="2.60526" fill="#4F4F4F"/>
<circle cx="65.1316" cy="33.8684" r="2.60526" fill="#4F4F4F"/>
<circle cx="65.1316" cy="96.3947" r="2.60526" fill="#4F4F4F"/>
<circle cx="96.3943" cy="2.60526" r="2.60526" fill="#4F4F4F"/>
<circle cx="96.3943" cy="65.1316" r="2.60526" fill="#4F4F4F"/>
<circle cx="96.3943" cy="33.8684" r="2.60526" fill="#4F4F4F"/>
<circle cx="96.3943" cy="96.3947" r="2.60526" fill="#4F4F4F"/>
<circle cx="43" cy="74" r="23" stroke="#FF9900" stroke-width="4"/>
<path d="M72.6369 36.2025C72.1863 35.9419 71.5331 35.7025 70.6863 35.4859C71.475 35.2166 72.1158 34.8768 72.6 34.4631C73.0806 34.0512 73.452 33.5758 73.7108 33.0371C73.9696 32.4984 74.0999 31.9298 74.0999 31.3313C74.0999 30.5074 73.8534 29.7486 73.371 29.0585C72.8852 28.3684 72.1915 27.8385 71.2867 27.4706C70.9363 27.3262 70.5156 27.2153 70.0702 27.1326V23.9268H66.9911V26.916H65.0124V23.9268H61.9333V26.916H57.24V29.43H57.9565C58.4335 29.43 58.7575 29.474 58.9265 29.5602C59.0955 29.6465 59.2152 29.7645 59.2838 29.9106C59.3543 30.0584 59.3895 30.4017 59.3895 30.9387V41.0701C59.3895 41.6018 59.3543 41.9416 59.2838 42.093C59.2134 42.2444 59.0955 42.3623 58.9265 42.445C58.7557 42.5278 58.4335 42.5665 57.9565 42.5665H57.24V45.0822H61.9333V48.0715H65.0106V45.0822H66.7605C66.838 45.0822 66.9102 45.0805 66.9859 45.0805V48.0715H70.0649V44.8199C70.5807 44.7213 71.0349 44.5963 71.4222 44.4396C72.4855 44.0171 73.3041 43.3957 73.8816 42.5841C74.4625 41.7743 74.7548 40.8835 74.7548 39.9205C74.7548 39.1125 74.5664 38.3801 74.1809 37.727C73.8024 37.0756 73.2865 36.5669 72.6369 36.2025ZM63.8822 29.8454H65.875C67.0369 29.8454 67.845 29.9194 68.2956 30.062C68.7463 30.2046 69.0896 30.4457 69.3308 30.7855C69.5685 31.1235 69.6882 31.532 69.6882 32.009C69.6882 32.4685 69.5614 32.8752 69.3079 33.2273C69.0544 33.5776 68.6847 33.8399 68.1812 34.0142C67.6812 34.1885 66.9102 34.2747 65.8697 34.2747H63.8769L63.8822 29.8454ZM69.5104 41.0719C69.1547 41.5261 68.7234 41.8218 68.2164 41.9662C67.7094 42.1088 67.0704 42.181 66.301 42.181H64.9754C64.5353 42.181 64.2642 42.1546 64.1638 42.107C64.0635 42.0595 63.9931 41.9768 63.9491 41.8535C63.9121 41.7585 63.8927 41.4328 63.8839 40.8747V36.9436H66.2341C67.264 36.9436 68.0316 37.0404 68.5351 37.2306C69.0368 37.4189 69.4153 37.7041 69.6688 38.0738C69.9223 38.4523 70.0455 38.9065 70.0455 39.4417C70.042 40.0772 69.8642 40.6212 69.5104 41.0719ZM49.714 53.1645H82.2825C82.7684 53.1645 83.1627 52.7684 83.1627 52.2843V19.7157C83.1627 19.2299 82.7684 18.8355 82.2825 18.8355H49.714C49.2281 18.8355 48.8338 19.2299 48.8338 19.7157V52.2843C48.8338 52.7684 49.2281 53.1645 49.714 53.1645ZM50.5942 20.596H81.4023V51.404H50.5942V20.596ZM96 32.7097V23.161H88.2769V15.4836C88.2769 14.5118 87.4882 13.7231 86.5164 13.7231H78.839V6H69.2903V13.7231H62.7097V6H53.161V13.7231H45.4836C44.5118 13.7231 43.7231 14.5118 43.7231 15.4836V23.161H36V32.7097H43.7231V39.2903H36V48.839H43.7231V56.5164C43.7231 57.4882 44.5118 58.2769 45.4836 58.2769H53.161V66H62.7097V58.2769H69.2903V66H78.839V58.2769H86.5164C87.4882 58.2769 88.2769 57.4882 88.2769 56.5164V48.839H96V39.2903H88.2769V32.7097H96ZM84.7524 54.7559H47.2405V17.2405H84.7524V54.7559Z" fill="white"/>
</svg>
