<svg width="191" height="66" viewBox="0 0 191 66" fill="none" xmlns="http://www.w3.org/2000/svg">
<path d="M75.4055 33.0999L56.604 65.8H35.7631L39.9412 58.55H52.4258L67.0493 33.0999L52.4756 7.6499H31.585L46.2084 33.0999L27.4068 65.8H19.0506L0.249023 33.0999L14.8725 7.6499L19.0506 14.8999L8.60527 33.0999L23.2287 58.55L37.8521 33.0999L19.0506 0.399902H56.6537L75.4055 33.0999Z" fill="white"/>
<path d="M101.518 9.95C101.518 7.5 99.4789 5.95 96.7432 5.95H89.4315V13.95H96.793C99.5286 13.95 101.518 12.4 101.518 9.95ZM82.6172 29.65V0.349976H97.6883C104.751 0.349976 108.532 4.69997 108.532 9.89995C108.532 15.0499 104.652 19.5 97.6883 19.5H89.4315V29.65H82.6172Z" fill="#FF9900"/>
<path d="M124.25 6.64995L119.475 19.15H129.025L124.25 6.64995ZM132.656 29.5L130.815 24.6H117.684L115.744 29.5H108.283L120.171 0.449951H128.328L140.117 29.5H132.656Z" fill="#FF9900"/>
<path d="M151.01 29.4999V17.7999L139.619 0.399902H146.782L154.193 12.2499L161.455 0.399902H168.617L157.326 17.7999V29.4999H151.01Z" fill="#FF9900"/>
<path d="M100.623 57.15C100.623 55.3 99.2799 53.75 96.8427 53.75H88.8346V60.5H96.8427C99.2302 60.5 100.623 59.2 100.623 57.15ZM100.026 45.2499C100.026 43.3999 98.6831 42.0999 96.594 42.0999H88.7849V48.4499H96.594C98.7328 48.3499 100.026 47.0499 100.026 45.2499ZM82.6172 65.85V36.6499H97.9867C103.508 36.6499 106.393 40.1999 106.393 44.0999C106.393 47.7999 104.105 50.2 101.369 50.8C104.503 51.3 106.99 54.25 106.99 58C106.99 62.4 104.055 65.9 98.4841 65.9L82.6172 65.85Z" fill="white"/>
<path d="M161.256 65.85L154.093 55.2L146.881 65.85H139.669L150.065 50.9L140.316 36.7H147.578L154.093 46.6499L160.56 36.7H167.921L158.172 50.85L168.568 65.85H161.256Z" fill="white"/>
<path d="M125.244 36.7C116.789 36.15 109.726 42.9 109.726 51.3C109.726 59.35 116.241 65.9 124.25 65.9C132.556 65.9 139.271 58.85 138.774 50.4C138.326 43.1 132.457 37.2 125.244 36.7ZM125.344 60.45C119.823 61.1 115.097 56.75 115.097 51.3C115.097 46.2 119.226 42.05 124.25 42.05C129.671 42.05 133.999 46.75 133.402 52.3C132.954 56.55 129.522 60 125.344 60.45Z" fill="white"/>
<path d="M178.167 64.5C178.167 63.7 177.571 63.2 176.824 63.2C176.029 63.2 175.481 63.7 175.481 64.45C175.481 65.2 176.029 65.75 176.824 65.75C177.571 65.75 178.167 65.25 178.167 64.5ZM186.225 60.9V59.05H180.008C179.66 59.05 179.411 59 179.112 58.9C178.167 58.6 177.272 57.75 177.272 56.55C177.272 55.1 178.466 54.4 180.107 54.4H186.275V52.55H179.958C179.61 52.55 179.262 52.5 179.013 52.4C178.118 52.05 177.322 51.25 177.322 50.15C177.322 48.65 178.516 47.9 180.505 47.9H186.325V46.05H180.256C176.675 46.05 175.83 48.05 175.83 49.45C175.83 50.45 176.078 51.1 176.576 51.7C176.924 52.15 177.322 52.55 177.919 52.85V52.9C176.725 53.35 175.83 54.4 175.83 55.85C175.83 57.55 176.725 58.5 177.72 59.1V59.15L176.078 59.2V60.85C176.924 60.8 177.769 60.8 178.864 60.8H186.225V60.9ZM175.68 38.7C175.68 41.55 177.67 43.85 181.152 43.85C184.385 43.85 186.424 41.7 186.424 38.9C186.424 36.4 184.783 33.75 180.953 33.75C177.819 33.75 175.68 35.7 175.68 38.7ZM177.073 38.75C177.073 36.5 179.311 35.65 181.003 35.65C183.34 35.65 185.031 37 185.031 38.8C185.031 40.65 183.34 41.95 181.102 41.95C179.112 41.95 177.073 40.95 177.073 38.75ZM186.225 31.35V29.5H180.008C179.66 29.5 179.411 29.45 179.112 29.35C178.068 29 177.222 28.05 177.222 26.8C177.222 25.05 178.615 24.4 180.256 24.4H186.175V22.55H180.057C176.526 22.55 175.68 24.8 175.68 26.2C175.68 27.9 176.625 29.1 177.62 29.6V29.65L175.929 29.75V31.4C176.775 31.35 177.62 31.35 178.715 31.35H186.225ZM181.4 11.2C181.202 11.15 180.903 11.15 180.505 11.15C178.615 11.15 175.68 12.05 175.68 15.45C175.68 18.45 178.118 20.3 181.201 20.3C184.285 20.3 186.374 18.4 186.374 15.2C186.374 13.55 186.026 12.4 185.778 11.75L184.435 12.1C184.733 12.8 184.982 13.6 184.982 14.95C184.982 16.8 183.937 18.45 181.4 18.5V11.2ZM180.057 18.45C178.764 18.3 177.023 17.45 177.023 15.55C177.023 13.45 178.864 12.9 180.057 12.95V18.45ZM175.929 10.2L185.38 6.4C185.579 6.35 185.728 6.3 185.877 6.3C185.977 6.3 186.126 6.35 186.325 6.45C187.27 6.9 188.016 7.5 188.414 8C188.911 8.55 189.16 9.15 189.309 9.65L190.851 9.15C190.801 8.65 190.453 7.75 189.657 6.85C188.563 5.55 186.723 4.64999 183.191 3.29999L175.879 0.5V2.5L181.948 4.54999C182.694 4.79999 183.49 5.05 184.086 5.2V5.25C183.49 5.45 182.644 5.7 181.997 5.9L175.929 8.15V10.2Z" fill="#FF9900"/>
</svg>
